<?xml version="1.0" encoding="UTF-8"?>
<svg id="katman_1" xmlns="http://www.w3.org/2000/svg" xmlns:xlink="http://www.w3.org/1999/xlink" viewBox="0 0 1200 829.35">
  <defs>
    <style>
      .cls-1 {
        clip-path: url(#clippath-4);
      }

      .cls-2 {
        fill: url(#Adsız_degrade_300);
      }

      .cls-3 {
        stroke: url(#Adsız_degrade_300-4);
        stroke-linecap: round;
        stroke-width: 70px;
      }

      .cls-3, .cls-4 {
        fill: none;
      }

      .cls-5 {
        fill: url(#Adsız_degrade_300-2);
      }

      .cls-6 {
        clip-path: url(#clippath-1);
      }

      .cls-7 {
        fill: #fff;
        font-family: HelveticaNeue-Roman, 'Helvetica Neue';
        font-size: 53px;
      }

      .cls-8 {
        clip-path: url(#clippath-3);
      }

      .cls-9 {
        fill: url(#Adsız_degrade_300-3);
      }

      .cls-10 {
        clip-path: url(#clippath-2);
      }

      .cls-11 {
        clip-path: url(#clippath);
      }
    </style>
    <clipPath id="clippath">
      <path class="cls-4" d="M732.21,250.67c11.62,13.87,17.44,32.64,17.44,56.32v104.64h-70.72v-95.68c0-8.53-2.29-15.3-6.88-20.32-4.59-5.01-10.72-7.52-18.4-7.52s-14.08,2.51-18.56,7.52c-4.48,5.02-6.72,11.79-6.72,20.32v95.68h-71.04v-180.48h71.04v27.52c5.54-8.53,12.96-15.46,22.24-20.8,9.28-5.33,20.32-8,33.12-8,20.69,0,36.85,6.93,48.48,20.8Z"/>
    </clipPath>
    <linearGradient id="Adsız_degrade_300" data-name="Adsız degrade 300" x1="144.48" y1="300.75" x2="1063.63" y2="300.75" gradientUnits="userSpaceOnUse">
      <stop offset="0" stop-color="#ff1597"/>
      <stop offset="1" stop-color="#0404b5"/>
    </linearGradient>
    <clipPath id="clippath-1">
      <path class="cls-4" d="M847.76,231.15v180.48h-71.04v-180.48h71.04Z"/>
    </clipPath>
    <linearGradient id="Adsız_degrade_300-2" data-name="Adsız degrade 300" y1="300.75" y2="300.75" xlink:href="#Adsız_degrade_300"/>
    <clipPath id="clippath-2">
      <path class="cls-4" d="M993.18,351.15v60.48h-26.88c-49.5,0-74.24-24.64-74.24-73.92v-47.36h-22.4v-59.2h22.4v-43.52h71.04v43.52h29.44v59.2h-29.44v48.64c0,4.27,1.01,7.36,3.04,9.28,2.02,1.92,5.38,2.88,10.08,2.88h16.96Z"/>
    </clipPath>
    <clipPath id="clippath-3">
      <path class="cls-4" d="M339.9,271.31c6.5-13.97,15.41-24.64,26.72-32,11.31-7.36,24-11.04,38.08-11.04,11.73,0,21.87,2.4,30.4,7.2,8.53,4.8,15.04,11.36,19.52,19.68v-24.64h70.72v180.48h-70.72v-24.64c-4.48,8.32-10.99,14.88-19.52,19.68-8.53,4.8-18.67,7.2-30.4,7.2-14.08,0-26.77-3.68-38.08-11.04-11.31-7.36-20.21-18.03-26.72-32-6.51-13.97-9.76-30.45-9.76-49.44s3.25-35.46,9.76-49.44ZM447.26,298.35c-4.91-5.33-11.2-8-18.88-8s-13.98,2.67-18.88,8c-4.91,5.33-7.36,12.8-7.36,22.4s2.45,17.07,7.36,22.4c4.91,5.33,11.2,8,18.88,8s13.97-2.67,18.88-8c4.9-5.33,7.36-12.8,7.36-22.4s-2.46-17.06-7.36-22.4Z"/>
    </clipPath>
    <linearGradient id="Adsız_degrade_300-3" data-name="Adsız degrade 300" y1="300.11" y2="300.11" xlink:href="#Adsız_degrade_300"/>
    <clipPath id="clippath-4">
      <path class="cls-4" d="M312.54,351.15v60.48h-26.88c-49.5,0-74.24-24.64-74.24-73.92v-47.36h-22.4v-59.2h22.4v-43.52h71.04v43.52h29.44v59.2h-29.44v48.64c0,4.27,1.01,7.36,3.04,9.28,2.03,1.92,5.39,2.88,10.08,2.88h16.96Z"/>
    </clipPath>
    <linearGradient id="Adsız_degrade_300-4" data-name="Adsız degrade 300" x1="280.43" y1="567.47" x2="919.57" y2="567.47" xlink:href="#Adsız_degrade_300"/>
  </defs>
  <g>
    <g class="cls-11">
      <rect class="cls-2" x="144.48" y="135.62" width="919.15" height="330.27"/>
    </g>
    <g class="cls-6">
      <rect class="cls-5" x="144.48" y="135.62" width="919.15" height="330.27"/>
    </g>
    <g class="cls-10">
      <rect class="cls-2" x="144.48" y="135.62" width="919.15" height="330.27"/>
    </g>
    <g class="cls-8">
      <rect class="cls-9" x="144.48" y="134.98" width="919.15" height="330.27"/>
    </g>
    <g class="cls-1">
      <rect class="cls-2" x="144.48" y="135.62" width="919.15" height="330.27"/>
    </g>
  </g>
  <path class="cls-3" d="M315.43,470.73c65.49,160.21,245.98,235.97,403.15,169.22,75.06-31.88,134.73-92.7,166-169.22"/>
  <text class="cls-7" transform="translate(366.14 566.19) rotate(47.69)"><tspan x="0" y="0">s</tspan></text>
  <text class="cls-7" transform="translate(385.53 587.47) rotate(42)"><tspan x="0" y="0">o</tspan></text>
  <text class="cls-7" transform="translate(410.01 609.27) rotate(36.1)"><tspan x="0" y="0">c</tspan></text>
  <text class="cls-7" transform="translate(434.52 626.71) rotate(32.06)"><tspan x="0" y="0">i</tspan></text>
  <text class="cls-7" transform="translate(445.74 634.02) rotate(28.02)"><tspan x="0" y="0">a</tspan></text>
  <text class="cls-7" transform="translate(472.45 647.84) rotate(23.98)"><tspan x="0" y="0">l</tspan></text>
  <text class="cls-7" transform="translate(484.17 653.06) rotate(21.3)"><tspan x="0" y="0"> </tspan></text>
  <text class="cls-7" transform="translate(499.96 659.95) rotate(15.24)"><tspan x="0" y="0">m</tspan></text>
  <text class="cls-7" transform="translate(546.66 671.9) rotate(7.72)"><tspan x="0" y="0">e</tspan></text>
  <text class="cls-7" transform="translate(577.32 676) rotate(1.57)"><tspan x="0" y="0">d</tspan></text>
  <text class="cls-7" transform="translate(610.53 676.46) rotate(-2.89)"><tspan x="0" y="0">i</tspan></text>
  <text class="cls-7" transform="translate(623.98 676.03) rotate(-7.05)"><tspan x="0" y="0">a</tspan></text>
  <text class="cls-7" transform="translate(653.94 671.98) rotate(-11.5)"><tspan x="0" y="0"> </tspan></text>
  <text class="cls-7" transform="translate(670.97 669.21) rotate(-17.62)"><tspan x="0" y="0">m</tspan></text>
  <text class="cls-7" transform="translate(716.65 653.93) rotate(-25.03)"><tspan x="0" y="0">a</tspan></text>
  <text class="cls-7" transform="translate(744.52 640.82) rotate(-30.88)"><tspan x="0" y="0">n</tspan></text>
  <text class="cls-7" transform="translate(771.74 624.36) rotate(-36.71)"><tspan x="0" y="0">a</tspan></text>
  <text class="cls-7" transform="translate(796.41 605.88) rotate(-42.59)"><tspan x="0" y="0">g</tspan></text>
  <text class="cls-7" transform="translate(820.42 583.57) rotate(-48.44)"><tspan x="0" y="0">e</tspan></text>
  <text class="cls-7" transform="translate(840.28 560.74) rotate(-52.99)"><tspan x="0" y="0">r</tspan></text>
</svg>